# xmcd
#
# Track frame offsets:
#	150
#	24098
#	39360
#	48995
#	73995
#	90286
#	122724
#	156416
#
# Disc length: 2450 seconds
#
# Revision: 1
# Processed by: cddbd v1.5.1PL0 Copyright (c) Steve Scherf et al.
# Submitted via: EasyCDDAExtractor 7.0.5.1
#
DISCID=5d099008
DTITLE=11 Fingers - Live At The Jam Tin
DYEAR=2005
DGENRE=Blues
TTITLE0=Redhouse
TTITLE1=Crossroads
TTITLE2=House Is A Rockin
TTITLE3=Polk Salad Annie
TTITLE4=Pride And Joy
TTITLE5=Roadhouse Blues
TTITLE6=Stormy Monday
TTITLE7=Sweet Home Alabama
EXTD=
EXTT0=
EXTT1=
EXTT2=
EXTT3=
EXTT4=
EXTT5=
EXTT6=
EXTT7=
PLAYORDER=
